<?xml version="1.0" standalone="no"?>
<!DOCTYPE svg PUBLIC "-//W3C//DTD SVG 20010904//EN"
 "http://www.w3.org/TR/2001/REC-SVG-20010904/DTD/svg10.dtd">
<svg version="1.0" xmlns="http://www.w3.org/2000/svg"
 width="700.000000pt" height="700.000000pt" viewBox="0 0 700.000000 700.000000"
 preserveAspectRatio="xMidYMid meet">
<metadata>
Created by potrace 1.11, written by Peter Selinger 2001-2013
</metadata>
<g transform="translate(0.000000,700.000000) scale(0.100000,-0.100000)"
fill="#000000" stroke="none">
<path d="M588 6415 c0 0 -2 -1054 -3 -2342 l-1 -2343 1166 0 1166 0 0 -590 -1
-590 593 0 592 0 0 590 0 590 1165 0 1165 0 1 28 c1 35 1 4634 0 4647 -1 7
-197 10 -583 9 -321 -1 -586 -2 -590 -3 -5 0 -8 -262 -8 -581 l0 -580 -575 0
-575 0 -2 582 -3 583 -587 0 c-514 0 -587 -2 -590 -15 -2 -8 -3 -270 -3 -582
l1 -568 -572 0 c-449 0 -573 3 -576 13 -2 6 -3 267 -2 580 0 312 -2 568 -5
568 -4 1 -931 4 -1173 4z m3493 -1197 c1 -7 2 -269 3 -583 l1 -570 570 -1
c314 -1 576 -2 583 -3 9 -1 12 -123 12 -574 l0 -573 -1740 1 c-1176 0 -1740 3
-1741 10 -4 43 -3 1135 1 1136 3 1 264 3 580 4 316 1 577 3 580 4 3 0 5 262 4
581 l0 580 573 0 c451 0 573 -3 574 -12z"/>
</g>
</svg>
