<?xml version="1.0" encoding="utf-8"?>
<!-- Generator: Adobe Illustrator 23.0.1, SVG Export Plug-In . SVG Version: 6.00 Build 0)  -->
<svg version="1.1" id="レイヤー_1" xmlns="http://www.w3.org/2000/svg" xmlns:xlink="http://www.w3.org/1999/xlink" x="0px"
	 y="0px" viewBox="0 0 512 512" style="enable-background:new 0 0 512 512;" xml:space="preserve">
<style type="text/css">
	.st0{fill:#666666;}
</style>
<path class="st0" d="M459.37,151.72c0.33,4.55,0.33,9.1,0.33,13.65c0,138.72-105.58,298.56-298.56,298.56
	c-59.45,0-114.68-17.22-161.14-47.11c8.45,0.97,16.57,1.3,25.34,1.3c49.06,0,94.21-16.57,130.27-44.83
	c-46.13-0.98-84.79-31.19-98.11-72.77c6.5,0.97,13,1.62,19.82,1.62c9.42,0,18.84-1.3,27.61-3.57
	c-48.08-9.75-84.14-51.98-84.14-102.99v-1.3c13.97,7.8,30.21,12.67,47.43,13.32c-28.26-18.84-46.78-51.01-46.78-87.39
	c0-19.49,5.2-37.36,14.29-52.95c51.65,63.68,129.3,105.26,216.37,109.81c-1.62-7.8-2.6-15.92-2.6-24.04
	c0-57.83,46.78-104.93,104.93-104.93c30.21,0,57.5,12.67,76.67,33.14c23.71-4.55,46.46-13.32,66.6-25.34
	c-7.8,24.37-24.37,44.83-46.13,57.83c21.12-2.27,41.58-8.12,60.43-16.24C497.71,118.25,479.84,136.77,459.37,151.72L459.37,151.72z"
	/>
</svg>
